<svg width="148" height="53" viewBox="0 0 148 53" fill="none" xmlns="http://www.w3.org/2000/svg">
<rect x="0.5" y="0.5" width="147" height="52" rx="5.5" stroke="white"/>
<path d="M32.3801 18.5837L32.3801 18.5837L32.3832 18.5868C32.8764 19.08 32.8742 19.8705 32.3847 20.3517L32.3832 20.3532L28.4932 24.2432L28.3952 24.3412L28.4263 24.4762L30.5153 33.5318L29.4433 34.6113L25.7215 27.4843L25.5639 27.1825L25.3232 27.4232L21.4232 31.3232L21.3345 31.4119L21.3526 31.5361L21.6944 33.8812L20.9487 34.6199L19.3487 31.7289L19.3139 31.6662L19.2512 31.6314L16.3484 30.0207L17.0892 29.2659L19.4633 29.6173L19.5878 29.6357L19.6767 29.5468L23.5467 25.6768L23.7867 25.4368L23.4864 25.2788L16.3578 21.5274L17.4382 20.4546L26.4937 22.5436L26.6287 22.5748L26.7267 22.4768L30.6167 18.5868L30.6167 18.5868L30.6198 18.5837C31.0815 18.1055 31.9184 18.1055 32.3801 18.5837Z" stroke="white" stroke-width="0.5"/>
<path d="M53.9318 21.9091C53.8409 20.8239 53.3977 19.946 52.6023 19.2756C51.8125 18.6051 50.7898 18.2699 49.5341 18.2699C48.6875 18.2699 47.9347 18.4261 47.2756 18.7386C46.6165 19.0511 46.0994 19.4773 45.7244 20.017C45.3494 20.5568 45.1619 21.1761 45.1619 21.875C45.1619 22.3239 45.2472 22.7301 45.4176 23.0938C45.5938 23.4517 45.8409 23.7727 46.1591 24.0568C46.4773 24.3352 46.8551 24.5795 47.2926 24.7898C47.7301 25 48.2131 25.1847 48.7415 25.3438L50.6506 25.9062C51.304 26.1051 51.9062 26.3352 52.4574 26.5966C53.0142 26.858 53.4972 27.1705 53.9062 27.5341C54.321 27.892 54.642 28.3125 54.8693 28.7955C55.1023 29.2784 55.2188 29.8352 55.2188 30.4659C55.2188 31.3864 54.9801 32.2102 54.5028 32.9375C54.0313 33.6648 53.358 34.2386 52.483 34.6591C51.6136 35.0739 50.5881 35.2812 49.4062 35.2812C48.2812 35.2812 47.3011 35.0909 46.4659 34.7102C45.6364 34.3295 44.9801 33.8011 44.4972 33.125C44.0142 32.4432 43.7415 31.6591 43.679 30.7727H44.7699C44.8267 31.4943 45.0568 32.1193 45.4602 32.6477C45.8693 33.1705 46.4119 33.5739 47.0881 33.858C47.7642 34.142 48.5369 34.2841 49.4062 34.2841C50.3438 34.2841 51.1705 34.125 51.8864 33.8068C52.6023 33.483 53.1619 33.0341 53.5653 32.4602C53.9688 31.8864 54.1705 31.2187 54.1705 30.4574C54.1705 29.8437 54.0256 29.3182 53.7358 28.8807C53.446 28.4432 53.017 28.0653 52.4489 27.7472C51.8864 27.429 51.1875 27.1449 50.3523 26.8949L48.3153 26.2812C46.9517 25.8665 45.9091 25.3011 45.1875 24.5852C44.4716 23.8693 44.1136 22.9773 44.1136 21.9091C44.1136 21.0114 44.3523 20.2159 44.8295 19.5227C45.3068 18.8239 45.9545 18.2756 46.7727 17.8778C47.5966 17.4801 48.5256 17.2812 49.5597 17.2812C50.5994 17.2812 51.517 17.483 52.3125 17.8864C53.108 18.2841 53.7386 18.8324 54.2045 19.5312C54.6705 20.2244 54.929 21.017 54.9801 21.9091H53.9318ZM59.9659 29.8864L59.9489 28.3949H60.2216L66.767 21.9091H68.1222L62.1136 27.875L62.0114 27.9176L59.9659 29.8864ZM59.0625 35V17.5455H60.1023V35H59.0625ZM67.0653 35L61.5426 28.0199L62.2926 27.3295L68.3949 35H67.0653ZM72.0384 39.9091C71.777 39.9091 71.5185 39.8807 71.2628 39.8239C71.0071 39.767 70.777 39.6932 70.5724 39.6023L70.8793 38.6903C71.4134 38.8949 71.8963 38.9688 72.3281 38.9119C72.7656 38.8551 73.152 38.6563 73.4872 38.3153C73.8224 37.9744 74.1065 37.4744 74.3395 36.8153L74.9361 35.179L70.1378 21.9091H71.2543L75.4134 33.6619H75.4986L79.6577 21.9091H80.7741L75.2514 37.2244C75.0412 37.8153 74.777 38.3097 74.4588 38.7074C74.1406 39.1051 73.777 39.4034 73.3679 39.6023C72.9645 39.8068 72.5213 39.9091 72.0384 39.9091ZM84.3899 35V17.5455H94.1058V18.5341H85.4553V25.7699H93.5859V26.7585H85.4553V34.0114H94.3104V35H84.3899ZM101.625 35.2812C100.869 35.2812 100.176 35.1307 99.5455 34.8295C98.9205 34.5284 98.4176 34.0881 98.0369 33.5085C97.6619 32.929 97.4744 32.2244 97.4744 31.3949C97.4744 30.8494 97.571 30.3693 97.7642 29.9545C97.9574 29.5398 98.2557 29.1818 98.6591 28.8807C99.0625 28.5795 99.5795 28.3324 100.21 28.1392C100.841 27.9403 101.594 27.7869 102.469 27.679C103.134 27.5994 103.727 27.5227 104.25 27.4489C104.773 27.3693 105.182 27.2472 105.477 27.0824C105.778 26.9176 105.929 26.6676 105.929 26.3324V25.7869C105.929 24.8324 105.628 24.0739 105.026 23.5114C104.423 22.9489 103.594 22.6676 102.537 22.6676C101.599 22.6676 100.81 22.875 100.168 23.2898C99.5313 23.6989 99.0852 24.2273 98.8295 24.875L97.8494 24.5085C98.0994 23.8835 98.4602 23.3636 98.9318 22.9489C99.4091 22.5341 99.9545 22.2244 100.568 22.0199C101.188 21.8153 101.835 21.7131 102.511 21.7131C103.097 21.7131 103.653 21.7955 104.182 21.9602C104.716 22.125 105.19 22.375 105.605 22.7102C106.026 23.0455 106.358 23.4744 106.602 23.9972C106.847 24.5142 106.969 25.1335 106.969 25.8551V35H105.929V32.6392H105.852C105.625 33.1278 105.313 33.5739 104.915 33.9773C104.523 34.375 104.048 34.6932 103.491 34.9318C102.94 35.1648 102.318 35.2812 101.625 35.2812ZM101.727 34.3182C102.545 34.3182 103.27 34.1193 103.901 33.7216C104.537 33.3182 105.034 32.767 105.392 32.0682C105.75 31.3693 105.929 30.5767 105.929 29.6903V27.7642C105.798 27.8778 105.608 27.9801 105.358 28.071C105.114 28.1562 104.835 28.233 104.523 28.3011C104.216 28.3636 103.892 28.4205 103.551 28.4716C103.216 28.517 102.889 28.5597 102.571 28.5994C101.616 28.7131 100.838 28.8892 100.236 29.1278C99.6392 29.3608 99.2017 29.6676 98.9233 30.0483C98.6506 30.429 98.5142 30.8892 98.5142 31.429C98.5142 32.321 98.821 33.0256 99.4347 33.5426C100.048 34.0597 100.813 34.3182 101.727 34.3182ZM119.646 24.7301L118.683 24.9858C118.53 24.5085 118.311 24.0966 118.027 23.75C117.743 23.4034 117.385 23.1364 116.953 22.9489C116.527 22.7557 116.016 22.6591 115.419 22.6591C114.459 22.6591 113.672 22.8977 113.058 23.375C112.45 23.8523 112.146 24.4744 112.146 25.2415C112.146 25.8665 112.354 26.3835 112.768 26.7926C113.183 27.196 113.817 27.5028 114.669 27.7131L116.68 28.2159C117.714 28.4716 118.493 28.8864 119.016 29.4602C119.538 30.0284 119.8 30.7358 119.8 31.5824C119.8 32.304 119.604 32.9432 119.212 33.5C118.82 34.0568 118.277 34.4915 117.584 34.804C116.896 35.1165 116.095 35.2727 115.18 35.2727C113.959 35.2727 112.956 34.9886 112.172 34.4205C111.388 33.8466 110.885 33.0256 110.663 31.9574L111.661 31.7017C111.848 32.554 112.237 33.2045 112.828 33.6534C113.425 34.0966 114.206 34.3182 115.172 34.3182C116.24 34.3182 117.101 34.0653 117.754 33.5597C118.413 33.054 118.743 32.4062 118.743 31.6165C118.743 31.0142 118.55 30.5057 118.163 30.0909C117.777 29.6761 117.192 29.3722 116.408 29.179L114.32 28.6676C113.251 28.4062 112.45 27.9886 111.916 27.4148C111.382 26.8352 111.115 26.1222 111.115 25.2756C111.115 24.571 111.3 23.9517 111.669 23.4176C112.038 22.8835 112.547 22.4659 113.195 22.1648C113.842 21.8636 114.584 21.7131 115.419 21.7131C116.527 21.7131 117.43 21.9744 118.129 22.4972C118.828 23.0199 119.334 23.7642 119.646 24.7301ZM128.504 35.2727C127.322 35.2727 126.293 34.9801 125.418 34.3949C124.543 33.8097 123.867 33.0085 123.39 31.9915C122.913 30.9744 122.674 29.8153 122.674 28.5142C122.674 27.2074 122.913 26.0426 123.39 25.0199C123.873 23.9972 124.535 23.1903 125.376 22.5994C126.217 22.0085 127.177 21.7131 128.256 21.7131C128.989 21.7131 129.683 21.8608 130.336 22.1562C130.995 22.446 131.575 22.8665 132.075 23.4176C132.58 23.9687 132.975 24.6335 133.259 25.4119C133.549 26.1903 133.694 27.0653 133.694 28.0369V28.6847H123.33V27.7386H132.654C132.654 26.7898 132.461 25.9347 132.075 25.1733C131.688 24.4119 131.163 23.8068 130.498 23.358C129.833 22.9091 129.086 22.6847 128.256 22.6847C127.387 22.6847 126.612 22.929 125.93 23.4176C125.254 23.9006 124.717 24.554 124.319 25.3778C123.927 26.2017 123.722 27.1222 123.705 28.1392V28.5653C123.705 29.6562 123.896 30.6364 124.276 31.5057C124.663 32.3693 125.214 33.054 125.93 33.5597C126.646 34.0597 127.504 34.3097 128.504 34.3097C129.219 34.3097 129.83 34.1903 130.336 33.9517C130.847 33.7074 131.265 33.4119 131.589 33.0653C131.913 32.7187 132.157 32.3835 132.322 32.0597L133.268 32.4432C133.069 32.8807 132.759 33.3182 132.339 33.7557C131.924 34.1875 131.396 34.5483 130.754 34.8381C130.117 35.1278 129.367 35.2727 128.504 35.2727Z" fill="white"/>
</svg>
