<svg width="128" height="128" viewBox="0 0 128 128" fill="none" xmlns="http://www.w3.org/2000/svg">
<path d="M10.0099 18.9C9.4999 19.67 15.6199 65.24 15.5199 68.12C15.4199 71.01 12.0399 78.57 9.7499 85.23C7.4599 91.9 3.5799 105.13 4.1799 105.63C4.7799 106.13 46.4599 111.33 59.4999 111C72.5399 110.67 90.7199 107.02 106.3 105.78C116.51 104.97 122.09 104.08 122.91 104.08C123.73 104.08 124.55 103.83 124.05 102C123.55 100.17 118.02 83.9 115.84 77.93C113.66 71.96 110.84 64.86 110.84 64.86C110.84 64.86 113.02 49.21 114.55 38.96C116.08 28.71 117.21 23.47 116.97 22.99C116.73 22.51 80.1799 17.1 79.4499 17.1C78.7199 17.1 49.0299 25.17 47.4999 25.09C45.9699 25 10.5299 18.12 10.0099 18.9Z" fill="#C8C8C8"/>
<path d="M21.14 67.84C21.14 67.84 16.77 25.37 16.77 25.1C16.77 24.83 48.44 30.54 48.44 30.54L67.18 37.79C67.18 37.79 80.05 22.73 81.33 22.83C82.61 22.93 108.27 26.77 109.24 26.88C110.21 26.98 110.73 27.65 110.52 29.03C110.32 30.41 104.67 65.51 104.67 65.51L60.89 77.41L21.14 67.84Z" fill="#1E85F9"/>
<path d="M48.4399 30.55L81.3299 22.83L79.7099 63.51L65.0899 73.69L50.3499 68.78L48.4399 30.55Z" fill="#136FD8"/>
<path d="M21.1399 67.84L50.3499 68.78L65.3299 72.49L79.7099 63.5C79.7099 63.5 91.3299 64.22 94.5699 64.46C97.8099 64.7 104.68 65.5 104.68 65.5C104.68 65.5 117.1 97.74 117.33 98.15C117.56 98.56 117.33 99.38 116.51 99.49C115.69 99.6 106.12 100.07 106.12 100.07C106.12 100.07 101.98 98.55 98.9399 98.96C95.9099 99.37 91.1799 101.88 91.1799 101.88L84.8199 102.58C84.8199 102.58 83.7699 101.12 82.9499 100.3C82.1299 99.48 80.7899 98.9 80.7899 98.9L65.6499 94.95L46.5199 105.06C46.5199 105.06 13.2599 102.06 11.9299 101.85C10.5999 101.64 9.97993 101.36 10.5299 99.69C11.0899 98.02 21.1399 67.84 21.1399 67.84Z" fill="#36B4E2"/>
<path d="M50.35 68.78C50.35 68.78 56.11 68.38 65.04 66.99C74.94 65.45 79.72 63.65 79.72 63.65L81 103.32C81 103.32 71.59 105.3 64.12 105.41C56.65 105.52 46.51 105.07 46.51 105.07L50.35 68.78Z" fill="#6CCBF6"/>
<path d="M48.4399 30.55L49.3099 48.05C49.3099 48.05 50.0099 46.41 51.1999 46.11C52.3999 45.81 54.5899 45.41 54.7399 44.67C54.8899 43.92 54.1899 41.78 54.3899 40.78C54.5899 39.78 55.4899 39.09 55.3899 37.09C55.2899 35.1 54.3899 35.05 54.5899 34.05C54.7899 33.05 55.0899 32.21 55.6399 31.31C56.1899 30.41 56.4899 30.36 56.8399 29.77C57.1199 29.3 57.2399 28.47 57.2399 28.47L48.4399 30.55ZM61.2199 32.81C60.9599 33.8 60.6199 34.3 61.3199 34.85C62.0199 35.4 62.3699 36.2 62.5199 36.54C62.6699 36.89 62.7199 37.69 63.5699 37.69C64.4199 37.69 64.6199 36.79 64.7699 36.05C64.8699 35.55 65.0699 34.31 65.0699 34.31C65.0699 34.31 66.8099 33.26 66.5599 32.47C66.3099 31.67 65.3099 31.57 64.1199 31.72C62.8899 31.86 61.5199 31.66 61.2199 32.81ZM74.5199 27.63C74.8699 27.43 75.4199 26.19 75.8699 25.94C76.3199 25.69 76.8099 25.67 77.0699 26.34C77.6199 27.78 78.4199 27.83 78.2699 28.68C78.1199 29.53 76.4299 29.33 76.0299 29.63C75.6299 29.93 74.6799 30.33 74.0899 30.18C73.4899 30.03 71.7499 29.08 72.3499 28.14C72.7599 27.44 74.5199 27.63 74.5199 27.63ZM80.5499 42.24C80.5499 42.24 79.7799 42.46 79.5399 43.46C79.2999 44.46 79.1999 44.63 79.1999 44.63C79.1999 44.63 78.3399 45.45 77.5799 45.83C76.8199 46.21 76.2099 46.76 76.2099 46.76C76.2099 46.76 74.8699 46.55 73.9099 47C72.9499 47.45 72.5999 48.17 72.5999 48.17C72.5999 48.17 74.0399 54.49 74.0399 54.39C74.0399 54.29 80.2799 51.38 80.2799 51.38L80.5499 42.24ZM69.7099 46.3C69.7099 46.3 67.8299 44.83 66.8399 44.73C66.2399 44.67 64.2399 45.24 63.8699 45.77C63.4999 46.31 62.2199 48.37 61.7099 49.41C61.1999 50.45 59.2599 51.84 59.4499 52.98C59.7099 54.52 61.1399 54.19 61.1399 54.19L62.5199 54.16L63.1299 51.19L66.5299 47.79L69.7099 46.3Z" fill="#C8C8C8"/>
<path d="M53.96 68.38C53.96 68.38 54.42 67.35 55.35 66.79C56.28 66.23 59.51 64.17 60.12 64.17C60.73 64.17 61.51 64.89 61.87 65.3C62.23 65.71 62.49 66.12 62.79 66.17C63.09 66.22 65.61 66.22 67.1 66.02C68.59 65.81 69.97 65.15 69.97 64.58C69.97 64.01 68.07 63.6 67.76 63.55C67.45 63.5 66.07 63.76 65.91 63.86C65.76 63.96 65.45 64.32 64.93 64.22C64.42 64.12 63.54 63.35 63.18 62.83C62.82 62.32 62.2 61.55 61.54 61.6C60.87 61.65 60.1 61.86 59.74 62.11C59.38 62.37 58.1 64.01 57.64 64.32C57.18 64.63 55.95 64.47 55.54 63.7C55.13 62.93 55.08 62.06 55.33 61.8C55.59 61.54 56.46 61.39 56.66 61.13C56.87 60.87 56.4 59.64 56.92 59.23C57.43 58.82 58.87 59.23 58.97 59.13C59.07 59.03 60.3 57.38 60.41 57.03C60.51 56.67 60.46 55.95 60.67 55.85C60.88 55.75 61.8 55.64 61.95 55.85C62.1 56.06 62.93 56.36 63.7 56.16C64.47 55.96 65.8 54.52 65.8 53.95C65.8 53.38 65.18 53.28 65.03 52.82C64.88 52.36 65.39 51.69 65.85 51.23C66.31 50.77 66.62 50.15 66.21 49.84C65.8 49.53 65.39 49.89 64.93 50.4C64.47 50.91 63.7 51.89 63.7 52.4C63.7 52.91 64.32 54.25 63.91 54.5C63.5 54.75 62.99 55.37 62.68 55.17C62.37 54.96 61.15 54.18 61.15 54.18C61.15 54.18 60.99 53.32 61.65 52.25C62.32 51.17 64.27 48.25 65.7 47.22C67.13 46.19 69.23 45.93 69.23 45.93C69.23 45.93 70.12 46.3 70.47 46.66C70.83 47.02 71.24 48.05 70.88 48.46C70.52 48.87 69.8 48.92 69.8 48.92C69.8 48.92 70.01 49.95 70.62 50C71.24 50.05 72.59 48.17 72.59 48.17C72.59 48.17 73.6 48.05 74.37 48.31C75.14 48.57 75.35 49.49 76.06 49.8C76.78 50.11 78.22 49.9 78.93 50.21C79.65 50.52 80.26 51.34 80.26 51.34L79.7 63.66C79.7 63.66 73.1 65.75 67.02 66.74C61.13 67.7 53.96 68.38 53.96 68.38Z" fill="#40C252"/>
<path d="M56.8501 53.68C56.4101 53.78 56.1701 54.06 56.2101 54.43C56.2501 54.81 56.1301 55.37 56.1301 55.37C56.1301 55.37 55.1501 55.97 55.3401 56.65C55.5301 57.33 56.0501 57.33 56.6201 57.7C57.1901 58.07 57.7801 58.19 58.1601 57.96C58.5401 57.73 59.1901 56.93 58.8401 56.31C58.3101 55.37 58.3501 53.34 56.8501 53.68Z" fill="#40C252"/>
<path d="M31.7799 27.53C31.7799 27.53 31.7299 28.39 31.5499 28.84C31.3699 29.29 30.5199 29.79 30.5599 31.05C30.6099 32.32 30.3299 33.26 30.7699 33.74C31.4599 34.5 31.4699 36.16 31.4699 36.16C31.4699 36.16 30.8399 36.75 30.9299 37.7C31.0199 38.65 31.7699 39.18 33.8799 39.02C35.2299 38.92 35.7499 38.74 35.8399 38.11C35.9299 37.48 36.3299 35.92 36.5099 34.75C36.6899 33.58 37.1499 32.47 37.1499 32.47C37.1499 32.47 37.9599 32.15 38.3199 31.84C38.6799 31.52 39.0899 31.3 39.4899 31.34C39.8999 31.39 40.2599 32.24 40.2599 32.24C40.2599 32.24 39.5099 33.18 38.6999 33.9C37.8899 34.62 37.7899 35.03 37.9799 36.01C38.1599 36.92 38.5799 37.53 39.1699 37.58C39.7599 37.63 40.2099 37.44 40.8899 37.58C41.5699 37.72 41.8799 38.39 41.8799 38.39C41.8799 38.39 42.5099 39.61 42.8299 40.56C43.1499 41.51 43.5999 43.05 43.6399 43.59C43.6899 44.13 43.3899 46.74 43.6199 47.73C43.8499 48.72 45.4899 52.13 46.3999 52.17C47.2999 52.22 47.6199 50.95 47.8499 50.41C48.0799 49.87 49.2999 48.07 49.2999 48.07L48.4299 30.57L31.7799 27.53Z" fill="#E0E0E0"/>
<path d="M18.7 44.09C18.7 44.09 19.17 43.38 19.62 43.25C20.07 43.12 20.93 42.71 20.93 42.39C20.93 42.07 20.8 41.25 21.02 40.45C21.25 39.64 22.74 38.69 24.86 38.68C26.48 38.67 27.21 39.68 27.52 40.23C27.84 40.77 27.97 42.53 28.11 42.81C28.25 43.09 28.74 43.62 29.28 43.62C29.82 43.62 30 43.39 30 42.99C30 42.58 29.7699 42.27 30.0499 41.68C30.3199 41.09 30.7299 40.51 32.2599 40.32C33.7999 40.14 35.53 39.95 36.06 40.09C36.96 40.34 38.55 41.85 38.82 42.17C39.09 42.49 39.36 43.75 39.45 44.29C39.54 44.83 40.3999 45.78 40.6699 46.1C40.9399 46.42 41.03 48.63 39.27 48.72C37.51 48.81 37.5099 46.73 37.5099 46.19C37.5099 45.65 37.33 45.06 37.06 44.97C36.79 44.88 35.64 44.8 35.52 45.06C35.12 45.94 35.66 46.51 35.43 46.82C35.2 47.14 31.95 49.94 31.77 50.48C31.59 51.02 31.09 51.93 31.68 52.65C32.27 53.37 34.3899 54.14 34.7999 54.37C35.2099 54.6 36.07 53.92 35.97 53.42C35.88 52.92 35.38 52.38 35.38 51.79C35.38 51.2 36.1499 50.12 36.5999 50.03C37.0499 49.94 38.2299 51.07 38.2299 51.07C38.2299 51.07 40.04 50.93 40.49 51.25C40.94 51.57 41.0299 52.61 41.0299 52.61L41.6199 53.6C41.6199 53.6 39.09 57.89 38.95 57.94C38.81 57.99 22.01 56.86 22.01 56.86L19.03 47.51L18.7 44.09Z" fill="#E0E0E0"/>
<path d="M20.62 62.81C20.62 62.81 21.34 64.21 21.56 64.75C21.79 65.29 22.28 66.06 22.46 66.42C22.64 66.78 23.5 67.78 24.18 67.73C24.86 67.68 24.77 65.52 25.35 65.7C25.94 65.88 26.16 67.06 26.39 67.33C26.62 67.6 26.98 68.05 26.98 68.05L29.19 69.22L29.91 68.05C29.91 68.05 29.91 67.19 30.05 67.01C30.19 66.83 31.68 65.84 31.9 65.74C32.13 65.65 33.99 66.01 34.52 65.88C35.61 65.61 37.55 63.17 37.95 62.45C38.36 61.73 39.03 60.96 39.31 60.55C39.58 60.14 39.36 59.67 39.36 59.67C39.36 59.67 40.86 59.89 41.4 58.76C41.68 58.17 41.65 57.43 41.65 57.43C41.65 57.43 43.05 56.39 43.05 55.67C43.05 54.95 41.6 53.59 41.6 53.59C41.6 53.59 40.33 54.45 39.21 55.08C38.09 55.71 36.68 56.22 34.96 55.95C33.24 55.68 32.71 55.44 32.39 55.17C32.07 54.9 31.68 54.06 31.33 53.6C30.57 52.62 29.19 52.23 28.96 51.51C28.73 50.79 30.13 49.84 29.55 48.84C28.96 47.85 26.93 48.39 25.8 48.66C24.67 48.93 23.13 49.43 22.86 49.34C22.59 49.25 22.81 48.53 21.78 47.62C20.87 46.82 18.79 45.16 18.79 45.16L20.62 62.81Z" fill="#7ADC8A"/>
<path d="M26.99 68.06H29.93C29.93 68.06 30.01 68.56 30.2 68.71C30.39 68.86 30.88 69.17 31.15 69.13C31.42 69.09 32.06 68.27 32.78 68.34C33.86 68.46 34.57 69 34.87 69.46C35.17 69.91 35.37 71.11 35.94 71.49C36.51 71.87 37.52 71.28 39.27 71.49C40.53 71.64 40.86 71.64 41.16 71.9C41.46 72.16 41.79 72.9 42.01 72.94C42.23 72.98 42.86 72.68 43.27 72.79C43.68 72.9 45.08 74.45 45.64 74.82C46.19 75.19 46.71 75.67 46.71 75.67C46.71 75.67 47.49 75.34 48.3 75.74C49.11 76.15 49.27 77.16 49.27 77.16C49.27 77.16 49.5 79.29 47.63 82.13C45.44 85.46 44.67 86.57 44.12 87.2C43.57 87.83 42.12 88.72 41.57 89.46C41.02 90.2 40.72 90.72 40.76 91.05C40.8 91.38 40.83 92.27 40.58 92.83C40.32 93.38 40.14 93.38 40.06 94.05C39.98 94.72 40.54 95.86 40.1 96.27C39.66 96.68 38.18 96.45 37.36 95.01C36.55 93.57 36.73 91.27 36.99 89.98C37.25 88.69 38.1 85.91 38.14 84.14C38.18 82.36 37.14 80.52 36.11 79.55C35.08 78.58 34.78 78.26 34.78 76.63C34.78 75.52 35.37 75 35.37 75L35.48 73.41C35.48 73.41 34.29 73.19 33.89 72.67C33.48 72.15 33.08 71.71 32.56 71.56C32.04 71.41 30.85 71.73 29.9 71.29C29.51 71.11 28.69 70.31 28.35 70.08C27.46 69.5 26.99 68.06 26.99 68.06Z" fill="#D0FE8B"/>
<path d="M36.27 104.16C36.27 104.16 36.59 103.52 37.23 103.2C37.87 102.88 38.78 102.52 38.82 102.24C38.86 101.96 39.46 100.17 40.26 100.17C41.06 100.17 40.82 101.21 40.86 101.57C40.9 101.93 41.26 102.21 41.18 102.81C41.1 103.41 40.74 103.37 40.74 103.69C40.74 104.01 40.82 104.57 40.82 104.57L36.27 104.16Z" fill="#E0E0E0"/>
<path d="M53.9599 68.38C53.9599 68.38 53.1499 69.22 53.1499 69.71C53.1499 70.2 52.8899 72.3 53.3699 73.35C53.8499 74.4 54.0699 74.84 54.9099 75.15C55.7399 75.46 56.1799 75.72 56.9299 75.72C57.6799 75.72 58.5499 75.81 58.9499 75.85C59.3499 75.89 60.3099 76.6 60.4899 76.82C60.6699 77.04 60.7999 78.22 61.0199 78.53C61.2399 78.84 62.1199 79.41 62.1199 79.41C62.1199 79.41 61.7199 81.82 62.2099 82.97C62.6899 84.11 63.0899 85.74 63.3999 86.53C63.7099 87.32 64.8899 88.42 65.2399 88.68C65.5899 88.94 66.3799 88.5 66.9499 87.98C67.5199 87.46 68.8399 85.92 69.1499 85.61C69.4599 85.3 69.4599 84.42 69.7599 84.03C70.0699 83.63 69.7999 82.84 70.2399 82.32C70.6799 81.79 71.6399 81.05 71.7299 80.48C71.8199 79.91 71.5099 78.28 71.8199 77.76C72.1299 77.23 73.4399 75.48 73.8799 75.08C74.3199 74.68 74.6299 73.81 74.3599 73.54C74.0899 73.27 72.3799 73.36 71.8999 73.06C71.4199 72.75 70.5799 71.44 70.3599 71C70.1399 70.56 69.3499 69.51 69.2199 69.07C69.0899 68.63 69.9199 68.15 70.1399 68.28C70.3599 68.41 71.4599 70.17 71.8999 70.78C72.3399 71.39 72.3399 71.61 72.6499 71.7C72.9599 71.79 73.8399 71.88 74.0499 71.7C74.2699 71.52 75.1499 71.09 75.5399 70.78C75.9399 70.47 76.5899 70.21 76.5499 69.9C76.5099 69.59 76.3699 68.89 76.1499 68.8C75.9299 68.71 74.6999 68.89 74.6999 68.89C74.6999 68.89 73.5099 67.49 73.4299 67.22C73.3499 66.95 73.9999 66.61 74.4399 66.91C74.8799 67.21 75.8899 67.7 76.1499 67.79C76.4099 67.88 77.6399 68.23 78.0399 68.23C78.4399 68.23 79.9699 69.15 79.9699 69.15L79.7199 63.67C79.7199 63.67 73.0399 65.81 67.0399 66.75C60.8199 67.71 53.9599 68.38 53.9599 68.38Z" fill="#E3FFAD"/>
<path d="M53.3301 105.28C53.3301 105.28 55.6601 103.81 56.0801 103.57C56.5001 103.33 59.1001 102.21 59.9401 101.98C60.4201 101.85 65.2101 101.55 66.0801 101.57C67.2001 101.59 68.2101 101.92 69.4301 101.86C70.6501 101.8 73.8401 102.17 74.4501 101.8C75.0601 101.43 77.9401 99.24 78.5501 98.98C79.3001 98.67 80.8601 98.94 80.8601 98.94L81.0001 103.31C81.0001 103.31 71.4901 105.29 64.1201 105.4C56.7601 105.53 53.3301 105.28 53.3301 105.28ZM88.4801 30.85C87.4401 30.29 87.0101 31.97 86.8501 32.4C86.6901 32.84 86.5401 33.53 86.8101 34.03C87.1301 34.63 87.8501 34.79 88.1601 35.07C88.4701 35.35 89.5101 35.67 89.7901 34.63C90.0701 33.59 89.2701 32.72 89.2701 32.72C89.2701 32.72 89.3201 31.3 88.4801 30.85ZM80.5501 42.25C80.5501 42.25 81.1301 42.09 81.3401 42.49C81.4601 42.71 81.4801 42.9 81.6201 43.05C81.7601 43.2 83.4101 43.33 83.5701 43.09C83.7301 42.85 84.9601 40.62 86.2801 39.82C87.6001 39.02 89.1501 38.82 89.8301 38.5C90.5101 38.18 90.5901 37.15 91.3801 37.15C92.1701 37.15 94.4901 38.7 94.6501 38.98C94.8101 39.26 94.2901 40.02 93.8101 40.61C93.3301 41.21 92.5701 41.61 93.0101 41.89C93.4501 42.17 95.0001 42.41 95.8801 42.45C96.7601 42.49 97.2701 42.17 97.9501 42.49C98.6301 42.81 98.3501 44.24 98.7501 44.32C99.1501 44.4 101.22 44.56 101.9 44.16C102.58 43.76 102.42 43.16 103.14 43C103.86 42.84 104.57 42.76 105.25 43.32C105.93 43.88 106.6 44.48 106.96 44.79C107.32 45.11 107.92 45.23 107.92 45.23L107.1 50.35C107.1 50.35 101.58 52.84 101.07 52.84C100.55 52.84 80.1501 53.87 80.1501 53.87L80.5501 42.25Z" fill="#E0E0E0"/>
<path d="M80.29 51.34C80.29 51.34 80.67 51.93 80.79 52.17C80.91 52.41 81.55 52.65 81.87 52.37C82.19 52.09 81.99 50.02 82.19 49.74C82.39 49.46 84.38 49.7 84.54 49.58C84.7 49.46 85.74 49.06 86.17 49.3C86.61 49.54 87.33 50.65 87.92 50.62C88.52 50.58 89.24 50.82 89.71 50.26C90.19 49.7 90.95 48.63 91.98 48.27C93.01 47.91 93.69 47.83 93.85 47.67C94.01 47.51 95.4 45.64 95.92 45.44C96.44 45.24 97.35 45.36 97.71 45.44C98.07 45.52 98.23 45.68 98.27 46.48C98.31 47.28 98.51 48.03 98.67 48.27C98.83 48.51 100.02 49.62 100.38 49.66C100.74 49.7 101.85 49.42 102.93 49.66C104.01 49.9 105.64 50.42 106.04 50.42C106.44 50.42 107.08 50.37 107.08 50.37L106.6 53.35C106.6 53.35 106.31 53.16 105.59 53.28C104.87 53.4 104.55 53.88 104.08 53.76C103.61 53.64 103.08 53.48 102.76 53.6C102.44 53.72 100.77 55.51 100.97 55.95C101.17 56.39 102.64 55.99 103.04 56.27C103.44 56.55 104 57.03 104 57.35C104 57.67 104 58.63 103.72 58.82C103.44 59.02 102.17 58.98 101.89 59.18C101.61 59.38 101.89 60.26 101.45 60.81C101.01 61.37 99.58 62.6 99.58 62.6C99.58 62.6 99.36 63.36 99.23 63.61C99 64.1 98.64 64.64 98.4 64.6C98.16 64.56 97.08 63.09 96.57 63.05C96.05 63.01 96.21 64.6 96.21 64.6L79.72 63.66L80.29 51.34ZM103.87 60.9C103.83 60.68 102.96 60.53 102.76 60.83C102.56 61.13 101.99 61.9 101.69 62.54C101.39 63.18 100.68 64.55 101.19 64.85C101.48 65.02 102.74 64.13 103.25 63.33C103.37 63.14 104.04 61.91 103.87 60.9Z" fill="#7ADC8A"/>
<path d="M96.21 64.6L79.73 63.65L79.98 69.13C79.98 69.13 80.55 69.83 80.78 70.53C81.01 71.23 81.55 72.58 81.92 73.15C82.29 73.72 82.36 74.76 83.23 74.66C84.1 74.56 84.04 73.45 84.3 72.71C84.57 71.97 85.24 71.3 85.51 71.07C85.78 70.84 86.35 70.2 86.62 70.3C86.89 70.4 87.33 71.24 87.69 71.71C88.29 72.48 90 73.22 90 73.22C90 73.22 92.44 73.95 92.78 72.88C93.08 71.94 92.46 70.71 92.68 70.3C92.96 69.8 94 69.78 95 69.5C96.31 69.13 96.68 68.12 96.81 67.02C96.94 65.92 96.21 64.6 96.21 64.6Z" fill="#D0FE8B"/>
<path d="M97.7199 79.27C97.8799 79.05 96.9499 78.62 96.2599 77.45C95.5699 76.28 95.2799 75.6 94.9399 75.53C94.5999 75.46 92.6399 76.37 92.6399 76.54C92.6399 76.71 93.6199 77.95 93.6199 77.95C93.6199 77.95 92.2799 78.31 91.6299 77.33C90.9799 76.35 91.0799 75.48 90.6699 74.79C90.2599 74.1 89.6199 73.11 89.2299 73.14C88.8499 73.16 88.3899 73.48 88.5799 74.15C88.7699 74.82 88.9199 75.04 88.9199 75.04C89.2599 75.78 88.4599 76.74 88.7999 77.29C89.1399 77.84 91.9199 79.69 92.4199 79.9C92.9199 80.11 97.4299 79.67 97.7199 79.27ZM97.3899 75.53C98.1299 75.61 98.2999 73.83 98.1599 73.13C98.0199 72.43 97.4399 70.61 96.8399 70.61C96.2399 70.61 95.7099 71.35 95.8299 71.83C95.9499 72.31 96.3599 73.03 96.3799 73.27C96.3999 73.52 96.7099 75.46 97.3899 75.53ZM99.6399 76.34C99.4999 76.43 99.3999 77.47 99.5399 77.59C99.6799 77.71 100.69 77.83 101.17 78.45C101.65 79.07 101.67 79.74 101.98 79.84C102.29 79.94 104.86 79.36 104.86 78.21C104.86 77.59 100.07 76.06 99.6399 76.34ZM110.3 90.81C110.56 90.36 110.38 89.52 110.64 89.02C110.9 88.53 111.6 88.3 111.91 88.66C112.22 89.02 112.25 90.24 112.04 90.63C111.9 90.89 111.88 91.79 111.16 92.42C110.44 93.05 110.02 92.99 109.81 93.04C109.6 93.09 108.62 93.92 108.21 93.38C107.8 92.84 108.39 91.96 108.96 91.54C109.52 91.12 110.12 91.12 110.3 90.81ZM101.84 82.06C101.74 81.96 101.61 80.22 100.68 80.17C99.7499 80.12 98.9999 80.89 98.9999 80.89C98.9999 80.89 97.8399 80.81 97.5499 81.05C97.2699 81.28 96.1999 82.42 95.7399 82.63C95.2699 82.84 94.5499 83.04 94.0599 83.25C93.5699 83.46 93.2799 84.21 93.3399 85.01C93.3899 85.81 93.5699 87.6 93.6499 88.01C93.7299 88.42 94.2699 89.51 95.5899 88.99C96.9099 88.47 97.3799 87.83 97.6099 87.8C97.8399 87.77 99.9399 87.77 100.07 87.7C100.2 87.62 101.39 89.77 102.43 90C103.47 90.23 104.76 90.13 104.99 89.95C105.22 89.77 106.59 87.88 106.72 87.21C106.85 86.54 106.82 85.14 106.56 84.6C106.3 84.06 104.64 82.24 104.64 82.24C104.64 82.24 104.38 80.27 103.16 80.25C102.2 80.23 102.88 81.67 102.64 81.91C102.41 82.14 101.84 82.06 101.84 82.06Z" fill="#D0FE8B"/>
</svg>
